<?xml version="1.0" standalone="no"?>
<!DOCTYPE svg PUBLIC "-//W3C//DTD SVG 20010904//EN"
 "http://www.w3.org/TR/2001/REC-SVG-20010904/DTD/svg10.dtd">
<svg version="1.0" xmlns="http://www.w3.org/2000/svg"
 width="512.000000pt" height="512.000000pt" viewBox="0 0 512.000000 512.000000"
 preserveAspectRatio="xMidYMid meet">

<g transform="translate(0.000000,512.000000) scale(0.100000,-0.100000)"
fill="#D97706" stroke="none">
<path d="M2325 5110 c-329 -35 -591 -109 -880 -250 -155 -75 -402 -229 -457
-285 -32 -32 -36 -73 -10 -103 30 -36 62 -37 112 -2 412 288 720 415 1165 482
134 20 491 17 635 -5 268 -41 497 -113 730 -228 252 -125 444 -263 641 -459
192 -191 329 -383 453 -631 173 -348 250 -672 250 -1064 0 -211 -10 -317 -50
-506 -186 -894 -877 -1611 -1764 -1833 -557 -139 -1111 -84 -1635 163 -115 54
-202 76 -263 65 -20 -3 -236 -60 -479 -125 -384 -102 -447 -116 -477 -108 -46
13 -76 52 -76 100 0 21 53 233 117 471 144 531 143 526 66 694 -178 382 -248
686 -247 1079 1 630 218 1176 658 1653 84 91 92 116 51 157 -45 46 -70 36
-171 -69 -262 -271 -479 -649 -589 -1027 -70 -243 -99 -447 -99 -714 0 -402
74 -737 242 -1101 28 -60 54 -127 57 -149 5 -32 -19 -131 -115 -488 -130 -487
-136 -525 -99 -607 26 -59 63 -96 123 -127 85 -43 120 -38 601 93 264 72 449
117 480 117 41 1 73 -10 183 -61 233 -110 489 -184 767 -224 135 -19 512 -16
660 6 247 36 508 111 715 207 306 141 538 306 775 551 207 213 341 404 465
662 121 250 189 469 231 747 29 190 31 524 5 704 -60 412 -189 754 -411 1085
-302 451 -753 805 -1260 988 -137 50 -364 106 -515 127 -133 19 -468 28 -585
15z"/>
<path d="M1880 3499 c-88 -9 -214 -51 -296 -100 -75 -44 -209 -178 -253 -253
-107 -180 -132 -410 -67 -611 47 -148 135 -268 311 -425 281 -251 927 -730
985 -730 18 0 76 35 176 107 210 150 346 252 367 275 23 27 22 59 -4 92 -38
49 -64 39 -248 -97 -91 -68 -194 -143 -228 -167 l-62 -43 -28 18 c-119 76
-485 348 -668 495 -245 198 -358 314 -418 428 -121 231 -79 511 104 692 117
116 251 171 419 171 206 0 378 -94 496 -273 26 -38 56 -74 68 -79 37 -17 72 5
116 75 168 266 503 355 785 208 101 -53 194 -150 244 -255 53 -110 65 -172 59
-298 -11 -221 -90 -337 -414 -605 -62 -52 -107 -97 -110 -111 -13 -52 37 -102
88 -90 29 8 212 159 326 271 140 136 210 251 247 403 26 108 18 291 -19 398
-54 159 -156 293 -292 384 -127 85 -250 122 -409 122 -205 0 -366 -64 -512
-205 l-83 -78 -85 80 c-165 156 -365 224 -595 201z"/>
</g>
</svg>
